# MagicaVoxel @ Ephtracy

# group
o 

# material
mtllib sofachair01.mtl
usemtl palette

# normals
vn -1 0 0
vn 1 0 0
vn 0 0 1
vn 0 0 -1
vn 0 -1 0
vn 0 1 0

# texcoords
vt 0.775391 0.5
vt 0.810547 0.5
vt 0.994141 0.5

# verts
v -1.1 0 1
v -1.1 0 0.9
v -1.1 0 -0.8
v -1.1 0 -0.9
v -1.1 0.3 1
v -1.1 0.3 0.9
v -1.1 0.3 -0.8
v -1.1 0.3 -0.9
v -1.1 1.2 1.1
v -1.1 1.2 1
v -1.1 1.2 -0.7
v -1.1 1.3 1.1
v -1.1 1.3 -0.7
v -1.1 1.3 -0.8
v -1.1 2.4 -0.7
v -1.1 2.4 -0.8
v -1.1 2.4 -0.9
v -1.1 2.5 -0.7
v -1.1 2.5 -0.9
v -1 0 1.1
v -1 0 1
v -1 0 -0.9
v -1 0 -1
v -1 0.3 1.1
v -1 0.3 1
v -1 0.3 -0.9
v -1 0.3 -1
v -1 1.2 1.1
v -1 1.2 1
v -1 1.3 -0.7
v -1 1.3 -0.8
v -1 2.4 -0.7
v -1 2.4 -0.8
v -1 2.4 -0.9
v -1 2.4 -1
v -1 2.5 -0.9
v -1 2.5 -1
v -0.8 0.3 1.1
v -0.8 0.3 1
v -0.8 0.7 1.1
v -0.8 0.7 1
v -0.8 0.7 -0.7
v -0.8 0.8 1
v -0.8 0.8 -0.7
v -0.8 0.9 -0.6
v -0.8 0.9 -0.7
v -0.8 2.3 -0.6
v -0.8 2.3 -0.7
v 0.8 0 1.1
v 0.8 0 0.9
v 0.8 0 -0.8
v 0.8 0 -1
v 0.8 0.3 1.1
v 0.8 0.3 1
v 0.8 0.3 0.9
v 0.8 0.3 -0.8
v 0.8 0.3 -1
v 0.8 0.7 1
v 0.8 0.7 -0.7
v 0.8 1.2 1.1
v 0.8 1.2 -0.7
v 0.8 1.3 1.1
v 0.8 1.3 -0.7
v -0.9 0 1.1
v -0.9 0 0.9
v -0.9 0 -0.8
v -0.9 0 -1
v -0.9 0.3 1.1
v -0.9 0.3 1
v -0.9 0.3 0.9
v -0.9 0.3 -0.8
v -0.9 0.3 -1
v -0.9 0.7 1
v -0.9 0.7 -0.7
v -0.9 1.2 1.1
v -0.9 1.2 -0.7
v -0.9 1.3 1.1
v -0.9 1.3 -0.7
v 0.7 0.3 1.1
v 0.7 0.3 1
v 0.7 0.7 1.1
v 0.7 0.7 1
v 0.7 0.7 -0.7
v 0.7 0.8 1
v 0.7 0.8 -0.7
v 0.7 0.9 -0.6
v 0.7 0.9 -0.7
v 0.7 2.3 -0.6
v 0.7 2.3 -0.7
v 0.9 0 1.1
v 0.9 0 1
v 0.9 0 -0.9
v 0.9 0 -1
v 0.9 0.3 1.1
v 0.9 0.3 1
v 0.9 0.3 -0.9
v 0.9 0.3 -1
v 0.9 1.2 1.1
v 0.9 1.2 1
v 0.9 1.3 -0.7
v 0.9 1.3 -0.8
v 0.9 2.4 -0.7
v 0.9 2.4 -0.8
v 0.9 2.4 -0.9
v 0.9 2.4 -1
v 0.9 2.5 -0.9
v 0.9 2.5 -1
v 1 0 1
v 1 0 0.9
v 1 0 -0.8
v 1 0 -0.9
v 1 0.3 1
v 1 0.3 0.9
v 1 0.3 -0.8
v 1 0.3 -0.9
v 1 1.2 1.1
v 1 1.2 1
v 1 1.2 -0.7
v 1 1.3 1.1
v 1 1.3 -0.7
v 1 1.3 -0.8
v 1 2.4 -0.7
v 1 2.4 -0.8
v 1 2.4 -0.9
v 1 2.5 -0.7
v 1 2.5 -0.9
v -1.1 1.2 1.1
v -1.1 1.3 1.1
v -1 0 1.1
v -1 0.3 1.1
v -1 1.2 1.1
v -0.9 0 1.1
v -0.9 0.3 1.1
v -0.9 1.2 1.1
v -0.9 1.3 1.1
v -0.8 0.3 1.1
v -0.8 0.7 1.1
v 0.7 0.3 1.1
v 0.7 0.7 1.1
v 0.8 0 1.1
v 0.8 0.3 1.1
v 0.8 1.2 1.1
v 0.8 1.3 1.1
v 0.9 0 1.1
v 0.9 0.3 1.1
v 0.9 1.2 1.1
v 1 1.2 1.1
v 1 1.3 1.1
v -1.1 0 1
v -1.1 0.3 1
v -1.1 1.2 1
v -1 0 1
v -1 0.3 1
v -1 1.2 1
v -0.9 0.3 1
v -0.9 0.7 1
v -0.8 0.3 1
v -0.8 0.7 1
v -0.8 0.8 1
v 0.7 0.3 1
v 0.7 0.7 1
v 0.7 0.8 1
v 0.8 0.3 1
v 0.8 0.7 1
v 0.9 0 1
v 0.9 0.3 1
v 0.9 1.2 1
v 1 0 1
v 1 0.3 1
v 1 1.2 1
v -0.8 0.9 -0.6
v -0.8 2.3 -0.6
v 0.7 0.9 -0.6
v 0.7 2.3 -0.6
v -1.1 2.4 -0.7
v -1.1 2.5 -0.7
v -1 1.3 -0.7
v -1 2.4 -0.7
v -0.9 0.7 -0.7
v -0.9 1.2 -0.7
v -0.9 1.3 -0.7
v -0.8 0.7 -0.7
v -0.8 0.8 -0.7
v -0.8 0.9 -0.7
v -0.8 2.3 -0.7
v 0.7 0.7 -0.7
v 0.7 0.8 -0.7
v 0.7 0.9 -0.7
v 0.7 2.3 -0.7
v 0.8 0.7 -0.7
v 0.8 1.2 -0.7
v 0.8 1.3 -0.7
v 0.9 1.3 -0.7
v 0.9 2.4 -0.7
v 1 2.4 -0.7
v 1 2.5 -0.7
v -1.1 0 -0.8
v -1.1 0.3 -0.8
v -1.1 1.3 -0.8
v -1.1 2.4 -0.8
v -1 1.3 -0.8
v -1 2.4 -0.8
v -0.9 0 -0.8
v -0.9 0.3 -0.8
v 0.8 0 -0.8
v 0.8 0.3 -0.8
v 0.9 1.3 -0.8
v 0.9 2.4 -0.8
v 1 0 -0.8
v 1 0.3 -0.8
v 1 1.3 -0.8
v 1 2.4 -0.8
v -1.1 0 0.9
v -1.1 0.3 0.9
v -0.9 0 0.9
v -0.9 0.3 0.9
v 0.8 0 0.9
v 0.8 0.3 0.9
v 1 0 0.9
v 1 0.3 0.9
v -1.1 0 -0.9
v -1.1 0.3 -0.9
v -1.1 2.4 -0.9
v -1.1 2.5 -0.9
v -1 0 -0.9
v -1 0.3 -0.9
v -1 2.4 -0.9
v -1 2.5 -0.9
v 0.9 0 -0.9
v 0.9 0.3 -0.9
v 0.9 2.4 -0.9
v 0.9 2.5 -0.9
v 1 0 -0.9
v 1 0.3 -0.9
v 1 2.4 -0.9
v 1 2.5 -0.9
v -1 0 -1
v -1 0.3 -1
v -1 2.4 -1
v -1 2.5 -1
v -0.9 0 -1
v -0.9 0.3 -1
v 0.8 0 -1
v 0.8 0.3 -1
v 0.9 0 -1
v 0.9 0.3 -1
v 0.9 2.4 -1
v 0.9 2.5 -1
v -1 0 1.1
v -0.9 0 1.1
v 0.8 0 1.1
v 0.9 0 1.1
v -1.1 0 1
v -1 0 1
v 0.9 0 1
v 1 0 1
v -1.1 0 0.9
v -0.9 0 0.9
v 0.8 0 0.9
v 1 0 0.9
v -1.1 0 -0.8
v -0.9 0 -0.8
v 0.8 0 -0.8
v 1 0 -0.8
v -1.1 0 -0.9
v -1 0 -0.9
v 0.9 0 -0.9
v 1 0 -0.9
v -1 0 -1
v -0.9 0 -1
v 0.8 0 -1
v 0.9 0 -1
v -0.8 0.3 1.1
v 0.7 0.3 1.1
v -0.9 0.3 1
v -0.8 0.3 1
v 0.7 0.3 1
v 0.8 0.3 1
v -1.1 0.3 0.9
v -0.9 0.3 0.9
v 0.8 0.3 0.9
v 1 0.3 0.9
v -1.1 0.3 -0.8
v -0.9 0.3 -0.8
v 0.8 0.3 -0.8
v 1 0.3 -0.8
v -0.9 0.3 -1
v 0.8 0.3 -1
v -0.8 0.9 -0.6
v 0.7 0.9 -0.6
v -0.8 0.9 -0.7
v 0.7 0.9 -0.7
v -1.1 1.2 1.1
v -1 1.2 1.1
v 0.9 1.2 1.1
v 1 1.2 1.1
v -1.1 1.2 1
v -1 1.2 1
v 0.9 1.2 1
v 1 1.2 1
v -1.1 2.4 -0.7
v -1 2.4 -0.7
v 0.9 2.4 -0.7
v 1 2.4 -0.7
v -1.1 2.4 -0.8
v -1 2.4 -0.8
v 0.9 2.4 -0.8
v 1 2.4 -0.8
v -0.8 0.7 1.1
v 0.7 0.7 1.1
v -0.9 0.7 1
v -0.8 0.7 1
v 0.7 0.7 1
v 0.8 0.7 1
v -0.9 0.7 -0.7
v -0.8 0.7 -0.7
v 0.7 0.7 -0.7
v 0.8 0.7 -0.7
v -0.8 0.8 1
v 0.7 0.8 1
v -0.8 0.8 -0.7
v 0.7 0.8 -0.7
v -1.1 1.3 1.1
v -0.9 1.3 1.1
v 0.8 1.3 1.1
v 1 1.3 1.1
v -1.1 1.3 -0.7
v -1 1.3 -0.7
v -0.9 1.3 -0.7
v 0.8 1.3 -0.7
v 0.9 1.3 -0.7
v 1 1.3 -0.7
v -1.1 1.3 -0.8
v -1 1.3 -0.8
v 0.9 1.3 -0.8
v 1 1.3 -0.8
v -0.8 2.3 -0.6
v 0.7 2.3 -0.6
v -0.8 2.3 -0.7
v 0.7 2.3 -0.7
v -1.1 2.5 -0.7
v 1 2.5 -0.7
v -1.1 2.5 -0.9
v -1 2.5 -0.9
v 0.9 2.5 -0.9
v 1 2.5 -0.9
v -1 2.5 -1
v 0.9 2.5 -1

# faces
f 5/3/1 2/3/1 1/3/1
f 6/3/1 2/3/1 5/3/1
f 7/3/1 4/3/1 3/3/1
f 8/3/1 4/3/1 7/3/1
f 10/2/1 6/2/1 5/2/1
f 10/2/1 7/2/1 6/2/1
f 10/2/1 8/2/1 7/2/1
f 11/2/1 8/2/1 10/2/1
f 12/3/1 10/3/1 9/3/1
f 12/3/1 11/3/1 10/3/1
f 13/2/1 8/2/1 11/2/1
f 13/3/1 11/3/1 12/3/1
f 14/2/1 8/2/1 13/2/1
f 16/2/1 8/2/1 14/2/1
f 17/2/1 8/2/1 16/2/1
f 18/3/1 16/3/1 15/3/1
f 18/3/1 17/3/1 16/3/1
f 19/3/1 17/3/1 18/3/1
f 24/3/1 21/3/1 20/3/1
f 25/3/1 21/3/1 24/3/1
f 26/3/1 23/3/1 22/3/1
f 27/3/1 23/3/1 26/3/1
f 28/2/1 25/2/1 24/2/1
f 29/2/1 25/2/1 28/2/1
f 32/2/1 31/2/1 30/2/1
f 33/2/1 31/2/1 32/2/1
f 34/2/1 27/2/1 26/2/1
f 35/2/1 27/2/1 34/2/1
f 36/3/1 35/3/1 34/3/1
f 37/3/1 35/3/1 36/3/1
f 40/1/1 39/1/1 38/1/1
f 41/1/1 39/1/1 40/1/1
f 43/1/1 42/1/1 41/1/1
f 44/1/1 42/1/1 43/1/1
f 47/1/1 46/1/1 45/1/1
f 48/1/1 46/1/1 47/1/1
f 53/3/1 50/3/1 49/3/1
f 54/3/1 50/3/1 53/3/1
f 55/3/1 50/3/1 54/3/1
f 56/3/1 52/3/1 51/3/1
f 57/3/1 52/3/1 56/3/1
f 58/2/1 54/2/1 53/2/1
f 60/2/1 58/2/1 53/2/1
f 60/2/1 59/2/1 58/2/1
f 61/2/1 59/2/1 60/2/1
f 62/3/1 61/3/1 60/3/1
f 63/3/1 61/3/1 62/3/1
f 64/3/2 65/3/2 68/3/2
f 68/3/2 65/3/2 69/3/2
f 69/3/2 65/3/2 70/3/2
f 66/3/2 67/3/2 71/3/2
f 71/3/2 67/3/2 72/3/2
f 68/2/2 69/2/2 73/2/2
f 68/2/2 73/2/2 75/2/2
f 73/2/2 74/2/2 75/2/2
f 75/2/2 74/2/2 76/2/2
f 75/3/2 76/3/2 77/3/2
f 77/3/2 76/3/2 78/3/2
f 79/1/2 80/1/2 81/1/2
f 81/1/2 80/1/2 82/1/2
f 82/1/2 83/1/2 84/1/2
f 84/1/2 83/1/2 85/1/2
f 86/1/2 87/1/2 88/1/2
f 88/1/2 87/1/2 89/1/2
f 90/3/2 91/3/2 94/3/2
f 94/3/2 91/3/2 95/3/2
f 92/3/2 93/3/2 96/3/2
f 96/3/2 93/3/2 97/3/2
f 94/2/2 95/2/2 98/2/2
f 98/2/2 95/2/2 99/2/2
f 100/2/2 101/2/2 102/2/2
f 102/2/2 101/2/2 103/2/2
f 96/2/2 97/2/2 104/2/2
f 104/2/2 97/2/2 105/2/2
f 104/3/2 105/3/2 106/3/2
f 106/3/2 105/3/2 107/3/2
f 108/3/2 109/3/2 112/3/2
f 112/3/2 109/3/2 113/3/2
f 110/3/2 111/3/2 114/3/2
f 114/3/2 111/3/2 115/3/2
f 112/2/2 113/2/2 117/2/2
f 113/2/2 114/2/2 117/2/2
f 114/2/2 115/2/2 117/2/2
f 117/2/2 115/2/2 118/2/2
f 116/3/2 117/3/2 119/3/2
f 117/3/2 118/3/2 119/3/2
f 118/2/2 115/2/2 120/2/2
f 119/3/2 118/3/2 120/3/2
f 120/2/2 115/2/2 121/2/2
f 121/2/2 115/2/2 123/2/2
f 123/2/2 115/2/2 124/2/2
f 122/3/2 123/3/2 125/3/2
f 123/3/2 124/3/2 125/3/2
f 125/3/2 124/3/2 126/3/2
f 131/3/3 128/3/3 127/3/3
f 132/3/3 130/3/3 129/3/3
f 133/2/3 131/2/3 130/2/3
f 133/3/3 130/3/3 132/3/3
f 134/3/3 128/3/3 131/3/3
f 134/2/3 131/2/3 133/2/3
f 135/3/3 128/3/3 134/3/3
f 138/1/3 137/1/3 136/1/3
f 139/1/3 137/1/3 138/1/3
f 144/3/3 141/3/3 140/3/3
f 145/2/3 142/2/3 141/2/3
f 145/3/3 141/3/3 144/3/3
f 146/3/3 143/3/3 142/3/3
f 146/2/3 142/2/3 145/2/3
f 147/3/3 143/3/3 146/3/3
f 148/3/3 143/3/3 147/3/3
f 152/3/3 150/3/3 149/3/3
f 153/2/3 151/2/3 150/2/3
f 153/3/3 150/3/3 152/3/3
f 154/2/3 151/2/3 153/2/3
f 157/2/3 156/2/3 155/2/3
f 158/2/3 156/2/3 157/2/3
f 161/1/3 159/1/3 158/1/3
f 162/1/3 159/1/3 161/1/3
f 163/2/3 161/2/3 160/2/3
f 164/2/3 161/2/3 163/2/3
f 168/3/3 166/3/3 165/3/3
f 169/2/3 167/2/3 166/2/3
f 169/3/3 166/3/3 168/3/3
f 170/2/3 167/2/3 169/2/3
f 173/1/3 172/1/3 171/1/3
f 174/1/3 172/1/3 173/1/3
f 178/3/3 176/3/3 175/3/3
f 181/2/3 178/2/3 177/2/3
f 182/2/3 180/2/3 179/2/3
f 182/2/3 181/2/3 180/2/3
f 183/2/3 181/2/3 182/2/3
f 184/2/3 181/2/3 183/2/3
f 185/2/3 178/2/3 181/2/3
f 185/2/3 181/2/3 184/2/3
f 187/2/3 184/2/3 183/2/3
f 188/2/3 184/2/3 187/2/3
f 189/2/3 178/2/3 185/2/3
f 190/2/3 188/2/3 187/2/3
f 190/2/3 189/2/3 188/2/3
f 190/2/3 187/2/3 186/2/3
f 191/2/3 189/2/3 190/2/3
f 192/2/3 189/2/3 191/2/3
f 193/2/3 189/2/3 192/2/3
f 194/3/3 176/3/3 178/3/3
f 194/2/3 189/2/3 193/2/3
f 194/2/3 178/2/3 189/2/3
f 195/3/3 176/3/3 194/3/3
f 196/3/3 176/3/3 195/3/3
f 201/2/3 200/2/3 199/2/3
f 202/2/3 200/2/3 201/2/3
f 203/3/3 198/3/3 197/3/3
f 204/3/3 198/3/3 203/3/3
f 209/3/3 206/3/3 205/3/3
f 210/3/3 206/3/3 209/3/3
f 211/2/3 208/2/3 207/2/3
f 212/2/3 208/2/3 211/2/3
f 213/3/4 214/3/4 215/3/4
f 215/3/4 214/3/4 216/3/4
f 217/3/4 218/3/4 219/3/4
f 219/3/4 218/3/4 220/3/4
f 221/3/4 222/3/4 225/3/4
f 222/2/4 223/2/4 226/2/4
f 225/3/4 222/3/4 226/3/4
f 223/3/4 224/3/4 227/3/4
f 226/2/4 223/2/4 227/2/4
f 227/3/4 224/3/4 228/3/4
f 229/3/4 230/3/4 233/3/4
f 230/2/4 231/2/4 234/2/4
f 233/3/4 230/3/4 234/3/4
f 231/3/4 232/3/4 235/3/4
f 234/2/4 231/2/4 235/2/4
f 235/3/4 232/3/4 236/3/4
f 237/3/4 238/3/4 241/3/4
f 238/2/4 239/2/4 242/2/4
f 241/3/4 238/3/4 242/3/4
f 242/2/4 239/2/4 244/2/4
f 243/3/4 244/3/4 245/3/4
f 244/2/4 239/2/4 246/2/4
f 245/3/4 244/3/4 246/3/4
f 239/3/4 240/3/4 247/3/4
f 246/2/4 239/2/4 247/2/4
f 247/3/4 240/3/4 248/3/4
f 254/3/5 250/3/5 249/3/5
f 255/3/5 252/3/5 251/3/5
f 257/3/5 254/3/5 253/3/5
f 258/3/5 250/3/5 254/3/5
f 258/3/5 254/3/5 257/3/5
f 259/3/5 256/3/5 255/3/5
f 259/3/5 255/3/5 251/3/5
f 260/3/5 256/3/5 259/3/5
f 265/3/5 262/3/5 261/3/5
f 266/3/5 262/3/5 265/3/5
f 267/3/5 264/3/5 263/3/5
f 268/3/5 264/3/5 267/3/5
f 269/3/5 262/3/5 266/3/5
f 270/3/5 262/3/5 269/3/5
f 271/3/5 267/3/5 263/3/5
f 272/3/5 267/3/5 271/3/5
f 276/1/5 274/1/5 273/1/5
f 277/1/5 274/1/5 276/1/5
f 280/2/5 276/2/5 275/2/5
f 280/2/5 278/2/5 277/2/5
f 280/2/5 277/2/5 276/2/5
f 281/2/5 278/2/5 280/2/5
f 283/2/5 280/2/5 279/2/5
f 283/2/5 282/2/5 281/2/5
f 283/2/5 281/2/5 280/2/5
f 284/2/5 282/2/5 283/2/5
f 285/2/5 282/2/5 284/2/5
f 286/2/5 282/2/5 285/2/5
f 287/2/5 285/2/5 284/2/5
f 288/2/5 285/2/5 287/2/5
f 291/1/5 290/1/5 289/1/5
f 292/1/5 290/1/5 291/1/5
f 297/3/5 294/3/5 293/3/5
f 298/3/5 294/3/5 297/3/5
f 299/3/5 296/3/5 295/3/5
f 300/3/5 296/3/5 299/3/5
f 305/3/5 302/3/5 301/3/5
f 306/3/5 302/3/5 305/3/5
f 307/3/5 304/3/5 303/3/5
f 308/3/5 304/3/5 307/3/5
f 309/1/6 310/1/6 312/1/6
f 312/1/6 310/1/6 313/1/6
f 311/2/6 312/2/6 315/2/6
f 315/2/6 312/2/6 316/2/6
f 313/2/6 314/2/6 317/2/6
f 317/2/6 314/2/6 318/2/6
f 319/1/6 320/1/6 321/1/6
f 321/1/6 320/1/6 322/1/6
f 323/3/6 324/3/6 327/3/6
f 327/3/6 324/3/6 328/3/6
f 328/3/6 324/3/6 329/3/6
f 325/3/6 326/3/6 330/3/6
f 330/3/6 326/3/6 331/3/6
f 331/3/6 326/3/6 332/3/6
f 327/2/6 328/2/6 333/2/6
f 333/2/6 328/2/6 334/2/6
f 331/2/6 332/2/6 335/2/6
f 335/2/6 332/2/6 336/2/6
f 337/1/6 338/1/6 339/1/6
f 339/1/6 338/1/6 340/1/6
f 341/3/6 342/3/6 343/3/6
f 343/3/6 342/3/6 344/3/6
f 344/3/6 342/3/6 345/3/6
f 345/3/6 342/3/6 346/3/6
f 344/3/6 345/3/6 347/3/6
f 347/3/6 345/3/6 348/3/6
