# MagicaVoxel @ Ephtracy

# group
o 

# material
mtllib cupboard_2door_empty.mtl
usemtl palette

# normals
vn -1 0 0
vn 1 0 0
vn 0 0 1
vn 0 0 -1
vn 0 -1 0
vn 0 1 0

# texcoords
vt 0.00976563 0.5
vt 0.0136719 0.5
vt 0.0371094 0.5
vt 0.0410156 0.5
vt 0.0449219 0.5
vt 0.384766 0.5

# verts
v -0.9 1.4 0.3
v -0.9 1.4 0.2
v -0.9 1.4 -0.4
v -0.9 1.4 -0.5
v -0.9 1.8 0.3
v -0.9 1.8 0.2
v -0.9 1.8 -0.4
v -0.9 1.8 -0.5
v -0.7 0.2 1.2
v -0.7 0.2 0.1
v -0.7 0.2 -0.3
v -0.7 0.2 -1.4
v -0.7 0.3 1.3
v -0.7 0.3 1.2
v -0.7 0.3 0.1
v -0.7 0.3 0
v -0.7 0.3 -0.2
v -0.7 0.3 -0.3
v -0.7 0.3 -1.4
v -0.7 0.3 -1.5
v -0.7 1.4 0.3
v -0.7 1.4 0.2
v -0.7 1.4 -0.4
v -0.7 1.4 -0.5
v -0.7 1.5 0.3
v -0.7 1.5 0.2
v -0.7 1.5 -0.4
v -0.7 1.5 -0.5
v -0.7 1.7 0.3
v -0.7 1.7 0.2
v -0.7 1.7 -0.4
v -0.7 1.7 -0.5
v -0.7 1.8 0.3
v -0.7 1.8 0.2
v -0.7 1.8 -0.4
v -0.7 1.8 -0.5
v -0.7 2.1 1.3
v -0.7 2.1 1.2
v -0.7 2.1 0.1
v -0.7 2.1 0
v -0.7 2.1 -0.2
v -0.7 2.1 -0.3
v -0.7 2.1 -1.4
v -0.7 2.1 -1.5
v -0.7 2.2 1.2
v -0.7 2.2 0.1
v -0.7 2.2 -0.3
v -0.7 2.2 -1.4
v -0.6 0 1.3
v -0.6 0 -1.5
v -0.6 0.1 1.4
v -0.6 0.1 1.3
v -0.6 0.1 -1.5
v -0.6 0.1 -1.6
v -0.6 0.2 1.2
v -0.6 0.2 0.1
v -0.6 0.2 -0.3
v -0.6 0.2 -1.4
v -0.6 0.3 1.3
v -0.6 0.3 1.2
v -0.6 0.3 0.1
v -0.6 0.3 0
v -0.6 0.3 -0.2
v -0.6 0.3 -0.3
v -0.6 0.3 -1.4
v -0.6 0.3 -1.5
v -0.6 1.4 -1.5
v -0.6 1.4 -1.6
v -0.6 1.6 -1.5
v -0.6 1.6 -1.6
v -0.6 1.7 -1.5
v -0.6 1.7 -1.6
v -0.6 1.9 1.4
v -0.6 1.9 1.3
v -0.6 2 1.4
v -0.6 2 1.3
v -0.6 2.1 1.4
v -0.6 2.1 1.3
v -0.6 2.1 1.2
v -0.6 2.1 0.1
v -0.6 2.1 0
v -0.6 2.1 -0.2
v -0.6 2.1 -0.3
v -0.6 2.1 -1.4
v -0.6 2.1 -1.5
v -0.6 2.2 1.2
v -0.6 2.2 0.1
v -0.6 2.2 -0.3
v -0.6 2.2 -1.4
v -0.6 2.2 -1.5
v -0.6 2.2 -1.6
v -0.6 2.3 1.4
v -0.6 2.3 1.3
v -0.6 2.3 -0.5
v -0.6 2.3 -0.7
v -0.6 2.3 -1.4
v -0.6 2.3 -1.5
v -0.6 2.3 -1.6
v -0.6 2.4 1.3
v -0.6 2.4 -0.5
v -0.6 2.4 -0.7
v -0.6 2.4 -1.4
v -0.6 2.4 -1.5
v -0.6 2.5 1.3
v -0.6 2.5 -1.5
v -0.5 0 1.4
v -0.5 0 1.3
v -0.5 0 -1.5
v -0.5 0 -1.6
v -0.5 0.1 1.5
v -0.5 0.1 1.4
v -0.5 0.1 1.3
v -0.5 0.1 -1.5
v -0.5 0.1 -1.6
v -0.5 0.1 -1.7
v -0.5 1.2 1.5
v -0.5 1.2 1.4
v -0.5 1.4 -1.6
v -0.5 1.4 -1.7
v -0.5 1.6 -1.6
v -0.5 1.7 -1.6
v -0.5 1.9 1.4
v -0.5 2 1.4
v -0.5 2.1 1.4
v -0.5 2.2 -1.6
v -0.5 2.3 1.5
v -0.5 2.3 1.4
v -0.5 2.3 1.3
v -0.5 2.3 -1.5
v -0.5 2.3 -1.6
v -0.5 2.3 -1.7
v -0.5 2.4 1.4
v -0.5 2.4 1.3
v -0.5 2.4 -1.5
v -0.5 2.4 -1.6
v -0.5 2.5 1.4
v -0.5 2.5 1.3
v -0.5 2.5 -1.5
v -0.5 2.5 -1.6
v -0.4 0 1.5
v -0.4 0 1.4
v -0.4 0 -1.6
v -0.4 0 -1.7
v -0.4 0.1 1.5
v -0.4 0.1 1.4
v -0.4 0.1 -1.6
v -0.4 0.1 -1.7
v -0.4 2.3 1.5
v -0.4 2.3 1.4
v -0.4 2.3 -1.6
v -0.4 2.3 -1.7
v -0.4 2.4 1.5
v -0.4 2.4 1.4
v -0.4 2.4 -1.6
v -0.4 2.4 -1.7
v -0.4 2.5 1.5
v -0.4 2.5 1.4
v -0.4 2.5 -1.6
v -0.4 2.5 -1.7
v -0.8 1.5 0.3
v -0.8 1.5 0.2
v -0.8 1.5 -0.4
v -0.8 1.5 -0.5
v -0.8 1.7 0.3
v -0.8 1.7 0.2
v -0.8 1.7 -0.4
v -0.8 1.7 -0.5
v 1.6 0 1.5
v 1.6 0 -1.7
v 1.6 2.3 -0.7
v 1.6 2.3 -0.9
v 1.6 2.4 1.5
v 1.6 2.4 -0.7
v 1.6 2.4 -0.9
v 1.6 2.4 -1.7
v 1.6 2.5 1.5
v 1.6 2.5 -1.7
v -0.5 0.1 1.5
v -0.5 1.2 1.5
v -0.5 2.3 1.5
v -0.4 0 1.5
v -0.4 0.1 1.5
v -0.4 2.3 1.5
v -0.4 2.4 1.5
v -0.4 2.5 1.5
v -0.3 1.7 1.5
v -0.3 1.8 1.5
v -0.2 1.2 1.5
v -0.2 1.3 1.5
v -0.2 1.8 1.5
v -0.2 2.1 1.5
v -0.1 1.3 1.5
v -0.1 1.4 1.5
v -0.1 2.1 1.5
v -0.1 2.2 1.5
v 0 1.5 1.5
v 0 1.7 1.5
v 0.1 1.4 1.5
v 0.1 1.5 1.5
v 0.2 2.2 1.5
v 0.2 2.4 1.5
v 0.5 0.9 1.5
v 0.5 1 1.5
v 0.7 1 1.5
v 0.7 1.1 1.5
v 0.8 0 1.5
v 0.8 0.1 1.5
v 1 0.1 1.5
v 1 0.2 1.5
v 1 1.1 1.5
v 1 1.2 1.5
v 1.1 0 1.5
v 1.1 0.1 1.5
v 1.1 0.9 1.5
v 1.1 1 1.5
v 1.3 0 1.5
v 1.3 0.1 1.5
v 1.3 0.2 1.5
v 1.3 0.4 1.5
v 1.4 1.2 1.5
v 1.4 1.3 1.5
v 1.5 0 1.5
v 1.5 0.4 1.5
v 1.5 1 1.5
v 1.5 1.3 1.5
v 1.6 0 1.5
v 1.6 2.4 1.5
v 1.6 2.5 1.5
v -0.6 0.1 1.4
v -0.6 1.9 1.4
v -0.6 2 1.4
v -0.6 2.1 1.4
v -0.6 2.3 1.4
v -0.5 0 1.4
v -0.5 0.1 1.4
v -0.5 1.2 1.4
v -0.5 1.9 1.4
v -0.5 2 1.4
v -0.5 2.1 1.4
v -0.5 2.3 1.4
v -0.5 2.4 1.4
v -0.5 2.5 1.4
v -0.4 0 1.4
v -0.4 0.1 1.4
v -0.4 2.3 1.4
v -0.4 2.4 1.4
v -0.4 2.5 1.4
v -0.7 0.3 1.3
v -0.7 2.1 1.3
v -0.6 0 1.3
v -0.6 0.1 1.3
v -0.6 0.3 1.3
v -0.6 1.9 1.3
v -0.6 2 1.3
v -0.6 2.1 1.3
v -0.6 2.3 1.3
v -0.6 2.4 1.3
v -0.6 2.5 1.3
v -0.5 0 1.3
v -0.5 0.1 1.3
v -0.5 2.3 1.3
v -0.5 2.4 1.3
v -0.5 2.5 1.3
v -0.7 0.2 1.2
v -0.7 0.3 1.2
v -0.7 2.1 1.2
v -0.7 2.2 1.2
v -0.6 0.2 1.2
v -0.6 0.3 1.2
v -0.6 2.1 1.2
v -0.6 2.2 1.2
v -0.9 1.4 0.3
v -0.9 1.8 0.3
v -0.8 1.5 0.3
v -0.8 1.7 0.3
v -0.7 1.4 0.3
v -0.7 1.5 0.3
v -0.7 1.7 0.3
v -0.7 1.8 0.3
v -0.7 0.3 -0.2
v -0.7 2.1 -0.2
v -0.6 0.3 -0.2
v -0.6 2.1 -0.2
v -0.7 0.2 -0.3
v -0.7 0.3 -0.3
v -0.7 2.1 -0.3
v -0.7 2.2 -0.3
v -0.6 0.2 -0.3
v -0.6 0.3 -0.3
v -0.6 2.1 -0.3
v -0.6 2.2 -0.3
v -0.9 1.4 -0.4
v -0.9 1.8 -0.4
v -0.8 1.5 -0.4
v -0.8 1.7 -0.4
v -0.7 1.4 -0.4
v -0.7 1.5 -0.4
v -0.7 1.7 -0.4
v -0.7 1.8 -0.4
v -0.9 1.4 0.2
v -0.9 1.8 0.2
v -0.8 1.5 0.2
v -0.8 1.7 0.2
v -0.7 1.4 0.2
v -0.7 1.5 0.2
v -0.7 1.7 0.2
v -0.7 1.8 0.2
v -0.7 0.2 0.1
v -0.7 0.3 0.1
v -0.7 2.1 0.1
v -0.7 2.2 0.1
v -0.6 0.2 0.1
v -0.6 0.3 0.1
v -0.6 2.1 0.1
v -0.6 2.2 0.1
v -0.7 0.3 0
v -0.7 2.1 0
v -0.6 0.3 0
v -0.6 2.1 0
v -0.9 1.4 -0.5
v -0.9 1.8 -0.5
v -0.8 1.5 -0.5
v -0.8 1.7 -0.5
v -0.7 1.4 -0.5
v -0.7 1.5 -0.5
v -0.7 1.7 -0.5
v -0.7 1.8 -0.5
v -0.7 0.2 -1.4
v -0.7 0.3 -1.4
v -0.7 2.1 -1.4
v -0.7 2.2 -1.4
v -0.6 0.2 -1.4
v -0.6 0.3 -1.4
v -0.6 2.1 -1.4
v -0.6 2.2 -1.4
v -0.7 0.3 -1.5
v -0.7 2.1 -1.5
v -0.6 0 -1.5
v -0.6 0.1 -1.5
v -0.6 0.3 -1.5
v -0.6 1.4 -1.5
v -0.6 1.6 -1.5
v -0.6 1.7 -1.5
v -0.6 2.1 -1.5
v -0.6 2.3 -1.5
v -0.6 2.4 -1.5
v -0.6 2.5 -1.5
v -0.5 0 -1.5
v -0.5 0.1 -1.5
v -0.5 2.3 -1.5
v -0.5 2.4 -1.5
v -0.5 2.5 -1.5
v -0.6 0.1 -1.6
v -0.6 1.4 -1.6
v -0.6 1.6 -1.6
v -0.6 1.7 -1.6
v -0.6 2.2 -1.6
v -0.6 2.3 -1.6
v -0.5 0 -1.6
v -0.5 0.1 -1.6
v -0.5 1.4 -1.6
v -0.5 1.6 -1.6
v -0.5 1.7 -1.6
v -0.5 2.2 -1.6
v -0.5 2.3 -1.6
v -0.5 2.4 -1.6
v -0.5 2.5 -1.6
v -0.4 0 -1.6
v -0.4 0.1 -1.6
v -0.4 2.3 -1.6
v -0.4 2.4 -1.6
v -0.4 2.5 -1.6
v -0.5 0.1 -1.7
v -0.5 1.4 -1.7
v -0.5 2.3 -1.7
v -0.4 0 -1.7
v -0.4 0.1 -1.7
v -0.4 1.4 -1.7
v -0.4 1.5 -1.7
v -0.4 2.3 -1.7
v -0.4 2.4 -1.7
v -0.4 2.5 -1.7
v -0.3 1.5 -1.7
v -0.3 1.6 -1.7
v -0.2 1.6 -1.7
v -0.2 1.8 -1.7
v -0.2 2.3 -1.7
v -0.2 2.4 -1.7
v 0 1.8 -1.7
v 0 2 -1.7
v 0.1 2 -1.7
v 0.1 2.1 -1.7
v 0.2 2 -1.7
v 0.2 2.1 -1.7
v 0.2 2.2 -1.7
v 0.2 2.3 -1.7
v 0.3 1.8 -1.7
v 0.3 2 -1.7
v 0.3 2.1 -1.7
v 0.3 2.2 -1.7
v 0.4 1.7 -1.7
v 0.4 1.8 -1.7
v 0.4 1.9 -1.7
v 0.4 2.1 -1.7
v 0.5 1.7 -1.7
v 0.5 1.9 -1.7
v 0.6 0.3 -1.7
v 0.6 0.4 -1.7
v 0.7 0.2 -1.7
v 0.7 0.3 -1.7
v 1 0.1 -1.7
v 1 0.2 -1.7
v 1 0.4 -1.7
v 1 0.5 -1.7
v 1.1 0.1 -1.7
v 1.1 0.2 -1.7
v 1.2 2.1 -1.7
v 1.2 2.2 -1.7
v 1.3 0.5 -1.7
v 1.3 0.6 -1.7
v 1.3 0.8 -1.7
v 1.3 0.9 -1.7
v 1.3 2 -1.7
v 1.3 2.1 -1.7
v 1.4 0.5 -1.7
v 1.4 0.6 -1.7
v 1.4 0.8 -1.7
v 1.4 1 -1.7
v 1.4 1.1 -1.7
v 1.5 0.2 -1.7
v 1.5 0.5 -1.7
v 1.5 0.6 -1.7
v 1.5 0.9 -1.7
v 1.5 1 -1.7
v 1.5 1.1 -1.7
v 1.5 2 -1.7
v 1.5 2.2 -1.7
v 1.6 0 -1.7
v 1.6 2.4 -1.7
v 1.6 2.5 -1.7
v -0.4 0 1.5
v 0.8 0 1.5
v 1.1 0 1.5
v 1.3 0 1.5
v 1.5 0 1.5
v 1.6 0 1.5
v -0.5 0 1.4
v -0.4 0 1.4
v 0.8 0 1.4
v 1.1 0 1.4
v 1.3 0 1.4
v 1.5 0 1.4
v -0.6 0 1.3
v -0.5 0 1.3
v -0.6 0 -1.5
v -0.5 0 -1.5
v -0.5 0 -1.6
v -0.4 0 -1.6
v -0.4 0 -1.7
v 1.6 0 -1.7
v -0.5 0.1 1.5
v -0.4 0.1 1.5
v -0.6 0.1 1.4
v -0.5 0.1 1.4
v -0.4 0.1 1.4
v -0.6 0.1 1.3
v -0.5 0.1 1.3
v -0.6 0.1 -1.5
v -0.5 0.1 -1.5
v -0.6 0.1 -1.6
v -0.5 0.1 -1.6
v -0.4 0.1 -1.6
v -0.5 0.1 -1.7
v -0.4 0.1 -1.7
v -0.7 0.2 1.2
v -0.6 0.2 1.2
v -0.7 0.2 0.1
v -0.6 0.2 0.1
v -0.7 0.2 -0.3
v -0.6 0.2 -0.3
v -0.7 0.2 -1.4
v -0.6 0.2 -1.4
v -0.7 0.3 1.3
v -0.6 0.3 1.3
v -0.7 0.3 1.2
v -0.6 0.3 1.2
v -0.7 0.3 0.1
v -0.6 0.3 0.1
v -0.7 0.3 0
v -0.6 0.3 0
v -0.7 0.3 -0.2
v -0.6 0.3 -0.2
v -0.7 0.3 -0.3
v -0.6 0.3 -0.3
v -0.7 0.3 -1.4
v -0.6 0.3 -1.4
v -0.7 0.3 -1.5
v -0.6 0.3 -1.5
v -0.9 1.4 0.3
v -0.7 1.4 0.3
v -0.9 1.4 0.2
v -0.7 1.4 0.2
v -0.9 1.4 -0.4
v -0.7 1.4 -0.4
v -0.9 1.4 -0.5
v -0.7 1.4 -0.5
v -0.8 1.7 0.3
v -0.7 1.7 0.3
v -0.8 1.7 0.2
v -0.7 1.7 0.2
v -0.8 1.7 -0.4
v -0.7 1.7 -0.4
v -0.8 1.7 -0.5
v -0.7 1.7 -0.5
v -0.8 1.5 0.3
v -0.7 1.5 0.3
v -0.8 1.5 0.2
v -0.7 1.5 0.2
v -0.8 1.5 -0.4
v -0.7 1.5 -0.4
v -0.8 1.5 -0.5
v -0.7 1.5 -0.5
v -0.9 1.8 0.3
v -0.7 1.8 0.3
v -0.9 1.8 0.2
v -0.7 1.8 0.2
v -0.9 1.8 -0.4
v -0.7 1.8 -0.4
v -0.9 1.8 -0.5
v -0.7 1.8 -0.5
v -0.7 2.1 1.3
v -0.6 2.1 1.3
v -0.7 2.1 1.2
v -0.6 2.1 1.2
v -0.7 2.1 0.1
v -0.6 2.1 0.1
v -0.7 2.1 0
v -0.6 2.1 0
v -0.7 2.1 -0.2
v -0.6 2.1 -0.2
v -0.7 2.1 -0.3
v -0.6 2.1 -0.3
v -0.7 2.1 -1.4
v -0.6 2.1 -1.4
v -0.7 2.1 -1.5
v -0.6 2.1 -1.5
v -0.7 2.2 1.2
v -0.6 2.2 1.2
v -0.7 2.2 0.1
v -0.6 2.2 0.1
v -0.7 2.2 -0.3
v -0.6 2.2 -0.3
v -0.7 2.2 -1.4
v -0.6 2.2 -1.4
v -0.5 2.3 1.5
v -0.4 2.3 1.5
v -0.6 2.3 1.4
v -0.5 2.3 1.4
v -0.4 2.3 1.4
v -0.6 2.3 1.3
v -0.5 2.3 1.3
v -0.6 2.3 -1.5
v -0.5 2.3 -1.5
v -0.6 2.3 -1.6
v -0.5 2.3 -1.6
v -0.4 2.3 -1.6
v -0.5 2.3 -1.7
v -0.4 2.3 -1.7
v -0.4 2.5 1.5
v 1.6 2.5 1.5
v -0.5 2.5 1.4
v -0.4 2.5 1.4
v -0.6 2.5 1.3
v -0.5 2.5 1.3
v -0.6 2.5 -1.5
v -0.5 2.5 -1.5
v -0.5 2.5 -1.6
v -0.4 2.5 -1.6
v -0.4 2.5 -1.7
v 1.6 2.5 -1.7

# faces
f 5/1/1 2/1/1 1/1/1
f 6/1/1 2/1/1 5/1/1
f 7/1/1 4/1/1 3/1/1
f 8/1/1 4/1/1 7/1/1
f 14/3/1 10/3/1 9/3/1
f 15/3/1 10/3/1 14/3/1
f 18/3/1 12/3/1 11/3/1
f 19/3/1 12/3/1 18/3/1
f 21/3/1 16/3/1 15/3/1
f 21/3/1 14/3/1 13/3/1
f 21/3/1 15/3/1 14/3/1
f 22/3/1 16/3/1 21/3/1
f 23/3/1 20/3/1 19/3/1
f 23/3/1 19/3/1 18/3/1
f 23/3/1 18/3/1 17/3/1
f 24/3/1 20/3/1 23/3/1
f 25/3/1 21/3/1 13/3/1
f 26/3/1 16/3/1 22/3/1
f 27/3/1 23/3/1 17/3/1
f 28/3/1 20/3/1 24/3/1
f 29/3/1 25/3/1 13/3/1
f 29/3/1 26/3/1 25/3/1
f 30/3/1 16/3/1 26/3/1
f 30/3/1 26/3/1 29/3/1
f 31/3/1 28/3/1 27/3/1
f 31/3/1 27/3/1 17/3/1
f 32/3/1 20/3/1 28/3/1
f 32/3/1 28/3/1 31/3/1
f 33/3/1 29/3/1 13/3/1
f 34/3/1 16/3/1 30/3/1
f 35/3/1 31/3/1 17/3/1
f 36/3/1 20/3/1 32/3/1
f 37/3/1 33/3/1 13/3/1
f 37/3/1 34/3/1 33/3/1
f 38/3/1 34/3/1 37/3/1
f 39/3/1 16/3/1 34/3/1
f 39/3/1 34/3/1 38/3/1
f 40/3/1 16/3/1 39/3/1
f 41/3/1 36/3/1 35/3/1
f 41/3/1 35/3/1 17/3/1
f 42/3/1 36/3/1 41/3/1
f 43/3/1 20/3/1 36/3/1
f 43/3/1 36/3/1 42/3/1
f 44/3/1 20/3/1 43/3/1
f 45/3/1 39/3/1 38/3/1
f 46/3/1 39/3/1 45/3/1
f 47/3/1 43/3/1 42/3/1
f 48/3/1 43/3/1 47/3/1
f 52/5/1 50/5/1 49/5/1
f 53/5/1 50/5/1 52/5/1
f 55/5/1 52/5/1 51/5/1
f 55/5/1 54/5/1 53/5/1
f 55/5/1 53/5/1 52/5/1
f 56/5/1 54/5/1 55/5/1
f 57/5/1 54/5/1 56/5/1
f 58/5/1 54/5/1 57/5/1
f 59/5/1 55/5/1 51/5/1
f 60/5/1 55/5/1 59/5/1
f 61/5/1 57/5/1 56/5/1
f 62/5/1 57/5/1 61/5/1
f 63/5/1 57/5/1 62/5/1
f 64/5/1 57/5/1 63/5/1
f 65/5/1 54/5/1 58/5/1
f 66/5/1 54/5/1 65/5/1
f 67/5/1 54/5/1 66/5/1
f 68/5/1 54/5/1 67/5/1
f 69/4/1 68/4/1 67/4/1
f 70/4/1 68/4/1 69/4/1
f 71/5/1 70/5/1 69/5/1
f 72/5/1 70/5/1 71/5/1
f 73/5/1 59/5/1 51/5/1
f 74/5/1 59/5/1 73/5/1
f 75/4/1 74/4/1 73/4/1
f 76/4/1 74/4/1 75/4/1
f 77/5/1 76/5/1 75/5/1
f 78/5/1 76/5/1 77/5/1
f 81/5/1 63/5/1 62/5/1
f 82/5/1 63/5/1 81/5/1
f 85/4/1 72/4/1 71/4/1
f 86/5/1 79/5/1 78/5/1
f 87/5/1 83/5/1 82/5/1
f 87/5/1 81/5/1 80/5/1
f 87/5/1 82/5/1 81/5/1
f 88/5/1 83/5/1 87/5/1
f 89/5/1 85/5/1 84/5/1
f 90/4/1 72/4/1 85/4/1
f 90/5/1 85/5/1 89/5/1
f 91/4/1 72/4/1 90/4/1
f 92/4/1 78/4/1 77/4/1
f 93/5/1 88/5/1 87/5/1
f 93/4/1 78/4/1 92/4/1
f 93/5/1 86/5/1 78/5/1
f 93/5/1 91/5/1 90/5/1
f 93/5/1 90/5/1 89/5/1
f 93/5/1 89/5/1 88/5/1
f 93/5/1 87/5/1 86/5/1
f 94/5/1 91/5/1 93/5/1
f 95/5/1 91/5/1 94/5/1
f 96/5/1 91/5/1 95/5/1
f 97/5/1 91/5/1 96/5/1
f 98/5/1 91/5/1 97/5/1
f 99/5/1 94/5/1 93/5/1
f 100/4/1 95/4/1 94/4/1
f 100/5/1 94/5/1 99/5/1
f 101/5/1 96/5/1 95/5/1
f 101/4/1 95/4/1 100/4/1
f 102/4/1 97/4/1 96/4/1
f 102/5/1 96/5/1 101/5/1
f 103/4/1 97/4/1 102/4/1
f 104/6/1 101/6/1 100/6/1
f 104/6/1 100/6/1 99/6/1
f 104/6/1 103/6/1 102/6/1
f 104/6/1 102/6/1 101/6/1
f 105/6/1 103/6/1 104/6/1
f 111/5/1 107/5/1 106/5/1
f 112/5/1 107/5/1 111/5/1
f 113/5/1 109/5/1 108/5/1
f 114/5/1 109/5/1 113/5/1
f 116/5/1 111/5/1 110/5/1
f 117/5/1 111/5/1 116/5/1
f 118/5/1 115/5/1 114/5/1
f 119/5/1 115/5/1 118/5/1
f 120/4/1 119/4/1 118/4/1
f 121/4/1 119/4/1 120/4/1
f 122/4/1 117/4/1 116/4/1
f 123/4/1 122/4/1 116/4/1
f 124/4/1 123/4/1 116/4/1
f 125/4/1 119/4/1 121/4/1
f 126/4/1 124/4/1 116/4/1
f 127/4/1 124/4/1 126/4/1
f 130/4/1 119/4/1 125/4/1
f 131/4/1 119/4/1 130/4/1
f 132/4/1 128/4/1 127/4/1
f 133/4/1 128/4/1 132/4/1
f 134/4/1 130/4/1 129/4/1
f 135/4/1 130/4/1 134/4/1
f 136/6/1 133/6/1 132/6/1
f 137/6/1 133/6/1 136/6/1
f 138/6/1 135/6/1 134/6/1
f 139/6/1 135/6/1 138/6/1
f 144/5/1 141/5/1 140/5/1
f 145/5/1 141/5/1 144/5/1
f 146/5/1 143/5/1 142/5/1
f 147/5/1 143/5/1 146/5/1
f 152/4/1 149/4/1 148/4/1
f 153/4/1 149/4/1 152/4/1
f 154/4/1 151/4/1 150/4/1
f 155/4/1 151/4/1 154/4/1
f 156/6/1 153/6/1 152/6/1
f 157/6/1 153/6/1 156/6/1
f 158/6/1 155/6/1 154/6/1
f 159/6/1 155/6/1 158/6/1
f 160/1/2 161/1/2 164/1/2
f 164/1/2 161/1/2 165/1/2
f 162/1/2 163/1/2 166/1/2
f 166/1/2 163/1/2 167/1/2
f 168/5/2 169/5/2 170/5/2
f 170/5/2 169/5/2 171/5/2
f 168/5/2 170/5/2 172/5/2
f 170/4/2 171/4/2 173/4/2
f 172/5/2 170/5/2 173/5/2
f 171/5/2 169/5/2 174/5/2
f 173/4/2 171/4/2 174/4/2
f 174/5/2 169/5/2 175/5/2
f 172/6/2 173/6/2 176/6/2
f 173/6/2 174/6/2 176/6/2
f 174/6/2 175/6/2 176/6/2
f 176/6/2 175/6/2 177/6/2
f 182/5/3 179/5/3 178/5/3
f 183/4/3 180/4/3 179/4/3
f 186/4/3 183/4/3 179/4/3
f 186/4/3 184/4/3 183/4/3
f 187/4/3 184/4/3 186/4/3
f 188/5/3 182/5/3 181/5/3
f 188/5/3 179/5/3 182/5/3
f 188/4/3 186/4/3 179/4/3
f 189/4/3 186/4/3 188/4/3
f 190/4/3 184/4/3 187/4/3
f 190/5/3 187/5/3 186/5/3
f 191/4/3 184/4/3 190/4/3
f 192/4/3 186/4/3 189/4/3
f 192/5/3 189/5/3 188/5/3
f 193/4/3 186/4/3 192/4/3
f 194/4/3 184/4/3 191/4/3
f 194/5/3 191/5/3 190/5/3
f 195/4/3 184/4/3 194/4/3
f 196/4/3 186/4/3 193/4/3
f 197/5/3 190/5/3 186/5/3
f 197/4/3 186/4/3 196/4/3
f 197/5/3 194/5/3 190/5/3
f 197/5/3 195/5/3 194/5/3
f 198/5/3 193/5/3 192/5/3
f 198/4/3 196/4/3 193/4/3
f 199/5/3 197/5/3 196/5/3
f 199/4/3 196/4/3 198/4/3
f 200/4/3 184/4/3 195/4/3
f 200/5/3 197/5/3 199/5/3
f 200/5/3 199/5/3 198/5/3
f 200/5/3 195/5/3 197/5/3
f 201/6/3 185/6/3 184/6/3
f 201/4/3 184/4/3 200/4/3
f 202/5/3 192/5/3 188/5/3
f 202/5/3 198/5/3 192/5/3
f 202/5/3 201/5/3 200/5/3
f 202/5/3 188/5/3 181/5/3
f 202/5/3 200/5/3 198/5/3
f 203/5/3 201/5/3 202/5/3
f 204/4/3 203/4/3 202/4/3
f 204/5/3 201/5/3 203/5/3
f 205/5/3 201/5/3 204/5/3
f 206/5/3 202/5/3 181/5/3
f 207/5/3 202/5/3 206/5/3
f 208/4/3 207/4/3 206/4/3
f 208/5/3 202/5/3 207/5/3
f 209/5/3 202/5/3 208/5/3
f 210/5/3 201/5/3 205/5/3
f 210/4/3 205/4/3 204/4/3
f 211/5/3 201/5/3 210/5/3
f 212/4/3 209/4/3 208/4/3
f 212/4/3 208/4/3 206/4/3
f 213/4/3 209/4/3 212/4/3
f 214/5/3 202/5/3 209/5/3
f 214/4/3 204/4/3 202/4/3
f 214/4/3 211/4/3 210/4/3
f 214/4/3 210/4/3 204/4/3
f 215/4/3 211/4/3 214/4/3
f 216/5/3 213/5/3 212/5/3
f 217/4/3 209/4/3 213/4/3
f 217/5/3 213/5/3 216/5/3
f 218/5/3 214/5/3 209/5/3
f 218/4/3 209/4/3 217/4/3
f 218/5/3 215/5/3 214/5/3
f 219/5/3 215/5/3 218/5/3
f 220/4/3 211/4/3 215/4/3
f 220/5/3 201/5/3 211/5/3
f 221/5/3 201/5/3 220/5/3
f 222/4/3 219/4/3 218/4/3
f 222/4/3 217/4/3 216/4/3
f 222/4/3 218/4/3 217/4/3
f 223/5/3 215/5/3 219/5/3
f 223/4/3 219/4/3 222/4/3
f 224/4/3 221/4/3 220/4/3
f 224/5/3 215/5/3 223/5/3
f 224/4/3 220/4/3 215/4/3
f 225/5/3 201/5/3 221/5/3
f 225/4/3 221/4/3 224/4/3
f 226/5/3 224/5/3 223/5/3
f 226/5/3 223/5/3 222/5/3
f 226/5/3 225/5/3 224/5/3
f 227/6/3 185/6/3 201/6/3
f 227/5/3 225/5/3 226/5/3
f 227/5/3 201/5/3 225/5/3
f 228/6/3 185/6/3 227/6/3
f 235/5/3 230/5/3 229/5/3
f 236/5/3 230/5/3 235/5/3
f 237/4/3 231/4/3 230/4/3
f 237/5/3 230/5/3 236/5/3
f 238/5/3 232/5/3 231/5/3
f 238/4/3 231/4/3 237/4/3
f 239/4/3 233/4/3 232/4/3
f 239/5/3 232/5/3 238/5/3
f 240/4/3 233/4/3 239/4/3
f 243/5/3 235/5/3 234/5/3
f 244/5/3 235/5/3 243/5/3
f 245/4/3 241/4/3 240/4/3
f 246/6/3 242/6/3 241/6/3
f 246/4/3 241/4/3 245/4/3
f 247/6/3 242/6/3 246/6/3
f 252/3/3 249/3/3 248/3/3
f 253/3/3 249/3/3 252/3/3
f 254/3/3 249/3/3 253/3/3
f 255/3/3 249/3/3 254/3/3
f 259/5/3 251/5/3 250/5/3
f 260/5/3 251/5/3 259/5/3
f 261/5/3 257/5/3 256/5/3
f 262/6/3 258/6/3 257/6/3
f 262/5/3 257/5/3 261/5/3
f 263/6/3 258/6/3 262/6/3
f 268/3/3 265/3/3 264/3/3
f 269/3/3 265/3/3 268/3/3
f 270/3/3 267/3/3 266/3/3
f 271/3/3 267/3/3 270/3/3
f 274/1/3 273/1/3 272/1/3
f 275/1/3 273/1/3 274/1/3
f 276/1/3 274/1/3 272/1/3
f 277/1/3 274/1/3 276/1/3
f 278/1/3 273/1/3 275/1/3
f 279/1/3 273/1/3 278/1/3
f 282/3/3 281/3/3 280/3/3
f 283/3/3 281/3/3 282/3/3
f 288/3/3 285/3/3 284/3/3
f 289/3/3 285/3/3 288/3/3
f 290/3/3 287/3/3 286/3/3
f 291/3/3 287/3/3 290/3/3
f 294/1/3 293/1/3 292/1/3
f 295/1/3 293/1/3 294/1/3
f 296/1/3 294/1/3 292/1/3
f 297/1/3 294/1/3 296/1/3
f 298/1/3 293/1/3 295/1/3
f 299/1/3 293/1/3 298/1/3
f 300/1/4 301/1/4 302/1/4
f 302/1/4 301/1/4 303/1/4
f 300/1/4 302/1/4 304/1/4
f 304/1/4 302/1/4 305/1/4
f 303/1/4 301/1/4 306/1/4
f 306/1/4 301/1/4 307/1/4
f 308/3/4 309/3/4 312/3/4
f 312/3/4 309/3/4 313/3/4
f 310/3/4 311/3/4 314/3/4
f 314/3/4 311/3/4 315/3/4
f 316/3/4 317/3/4 318/3/4
f 318/3/4 317/3/4 319/3/4
f 320/1/4 321/1/4 322/1/4
f 322/1/4 321/1/4 323/1/4
f 320/1/4 322/1/4 324/1/4
f 324/1/4 322/1/4 325/1/4
f 323/1/4 321/1/4 326/1/4
f 326/1/4 321/1/4 327/1/4
f 328/3/4 329/3/4 332/3/4
f 332/3/4 329/3/4 333/3/4
f 330/3/4 331/3/4 334/3/4
f 334/3/4 331/3/4 335/3/4
f 336/3/4 337/3/4 340/3/4
f 340/3/4 337/3/4 341/3/4
f 341/3/4 337/3/4 342/3/4
f 342/3/4 337/3/4 343/3/4
f 343/3/4 337/3/4 344/3/4
f 338/5/4 339/5/4 348/5/4
f 348/5/4 339/5/4 349/5/4
f 345/4/4 346/4/4 350/4/4
f 346/6/4 347/6/4 351/6/4
f 350/4/4 346/4/4 351/4/4
f 351/6/4 347/6/4 352/6/4
f 353/5/4 354/5/4 360/5/4
f 354/4/4 355/4/4 361/4/4
f 360/5/4 354/5/4 361/5/4
f 355/5/4 356/5/4 362/5/4
f 361/4/4 355/4/4 362/4/4
f 356/4/4 357/4/4 363/4/4
f 362/5/4 356/5/4 363/5/4
f 357/5/4 358/5/4 364/5/4
f 363/4/4 357/4/4 364/4/4
f 364/5/4 358/5/4 365/5/4
f 359/5/4 360/5/4 368/5/4
f 368/5/4 360/5/4 369/5/4
f 365/4/4 366/4/4 370/4/4
f 366/6/4 367/6/4 371/6/4
f 370/4/4 366/4/4 371/4/4
f 371/6/4 367/6/4 372/6/4
f 373/5/4 374/5/4 377/5/4
f 374/4/4 375/4/4 378/4/4
f 377/5/4 374/5/4 378/5/4
f 378/4/4 375/4/4 379/4/4
f 379/4/4 375/4/4 380/4/4
f 376/5/4 377/5/4 383/5/4
f 377/5/4 378/5/4 383/5/4
f 380/4/4 381/4/4 383/4/4
f 379/4/4 380/4/4 383/4/4
f 378/5/4 379/5/4 383/5/4
f 383/4/4 381/4/4 384/4/4
f 383/5/4 384/5/4 385/5/4
f 384/4/4 381/4/4 385/4/4
f 385/4/4 381/4/4 386/4/4
f 386/4/4 381/4/4 387/4/4
f 381/6/4 382/6/4 388/6/4
f 387/4/4 381/4/4 388/4/4
f 386/4/4 387/4/4 389/4/4
f 385/5/4 386/5/4 389/5/4
f 389/4/4 387/4/4 390/4/4
f 389/5/4 390/5/4 391/5/4
f 390/4/4 387/4/4 391/4/4
f 391/4/4 387/4/4 392/4/4
f 389/5/4 391/5/4 393/5/4
f 391/5/4 392/5/4 393/5/4
f 392/4/4 387/4/4 394/4/4
f 393/5/4 392/5/4 394/5/4
f 394/4/4 387/4/4 395/4/4
f 387/5/4 388/5/4 396/5/4
f 395/4/4 387/4/4 396/4/4
f 385/5/4 389/5/4 397/5/4
f 389/5/4 393/5/4 397/5/4
f 394/4/4 395/4/4 398/4/4
f 397/5/4 393/5/4 398/5/4
f 393/4/4 394/4/4 398/4/4
f 398/4/4 395/4/4 399/4/4
f 395/5/4 396/5/4 400/5/4
f 399/4/4 395/4/4 400/4/4
f 385/5/4 397/5/4 401/5/4
f 398/4/4 399/4/4 402/4/4
f 401/5/4 397/5/4 402/5/4
f 397/4/4 398/4/4 402/4/4
f 402/4/4 399/4/4 403/4/4
f 399/5/4 400/5/4 404/5/4
f 403/4/4 399/4/4 404/4/4
f 385/5/4 401/5/4 405/5/4
f 402/4/4 403/4/4 405/4/4
f 401/4/4 402/4/4 405/4/4
f 403/5/4 404/5/4 406/5/4
f 405/4/4 403/4/4 406/4/4
f 376/5/4 383/5/4 407/5/4
f 383/5/4 385/5/4 407/5/4
f 405/5/4 406/5/4 407/5/4
f 385/5/4 405/5/4 407/5/4
f 407/5/4 406/5/4 408/5/4
f 376/5/4 407/5/4 409/5/4
f 407/4/4 408/4/4 410/4/4
f 409/5/4 407/5/4 410/5/4
f 376/5/4 409/5/4 411/5/4
f 409/4/4 410/4/4 412/4/4
f 411/5/4 409/5/4 412/5/4
f 408/5/4 406/5/4 413/5/4
f 412/4/4 410/4/4 413/4/4
f 410/4/4 408/4/4 413/4/4
f 413/5/4 406/5/4 414/5/4
f 411/4/4 412/4/4 415/4/4
f 376/5/4 411/5/4 415/5/4
f 413/4/4 414/4/4 415/4/4
f 412/4/4 413/4/4 415/4/4
f 415/4/4 414/4/4 416/4/4
f 406/5/4 404/5/4 417/5/4
f 404/5/4 400/5/4 417/5/4
f 414/5/4 406/5/4 417/5/4
f 400/5/4 396/5/4 418/5/4
f 417/5/4 400/5/4 418/5/4
f 416/4/4 414/4/4 419/4/4
f 414/5/4 417/5/4 419/5/4
f 419/5/4 417/5/4 420/5/4
f 420/5/4 417/5/4 421/5/4
f 421/5/4 417/5/4 422/5/4
f 422/5/4 417/5/4 423/5/4
f 417/4/4 418/4/4 424/4/4
f 423/5/4 417/5/4 424/5/4
f 416/4/4 419/4/4 425/4/4
f 419/4/4 420/4/4 425/4/4
f 420/5/4 421/5/4 426/5/4
f 425/4/4 420/4/4 426/4/4
f 421/4/4 422/4/4 427/4/4
f 426/5/4 421/5/4 427/5/4
f 422/5/4 423/5/4 428/5/4
f 428/5/4 423/5/4 429/5/4
f 415/5/4 416/5/4 430/5/4
f 416/4/4 425/4/4 430/4/4
f 425/5/4 426/5/4 431/5/4
f 430/4/4 425/4/4 431/4/4
f 426/4/4 427/4/4 432/4/4
f 431/5/4 426/5/4 432/5/4
f 427/4/4 422/4/4 433/4/4
f 432/4/4 427/4/4 433/4/4
f 422/5/4 428/5/4 433/5/4
f 428/4/4 429/4/4 434/4/4
f 433/5/4 428/5/4 434/5/4
f 429/5/4 423/5/4 435/5/4
f 434/4/4 429/4/4 435/4/4
f 423/4/4 424/4/4 436/4/4
f 435/5/4 423/5/4 436/5/4
f 418/5/4 396/5/4 437/5/4
f 436/4/4 424/4/4 437/4/4
f 424/4/4 418/4/4 437/4/4
f 435/5/4 436/5/4 438/5/4
f 433/5/4 434/5/4 438/5/4
f 436/5/4 437/5/4 438/5/4
f 415/5/4 430/5/4 438/5/4
f 432/5/4 433/5/4 438/5/4
f 434/5/4 435/5/4 438/5/4
f 430/5/4 431/5/4 438/5/4
f 376/5/4 415/5/4 438/5/4
f 431/5/4 432/5/4 438/5/4
f 388/6/4 382/6/4 439/6/4
f 438/5/4 437/5/4 439/5/4
f 437/5/4 396/5/4 439/5/4
f 396/5/4 388/5/4 439/5/4
f 439/6/4 382/6/4 440/6/4
f 448/5/5 442/5/5 441/5/5
f 449/4/5 443/4/5 442/4/5
f 449/5/5 442/5/5 448/5/5
f 450/5/5 444/5/5 443/5/5
f 450/4/5 443/4/5 449/4/5
f 451/4/5 445/4/5 444/4/5
f 451/5/5 444/5/5 450/5/5
f 452/5/5 446/5/5 445/5/5
f 452/4/5 445/4/5 451/4/5
f 454/5/5 451/5/5 450/5/5
f 454/5/5 448/5/5 447/5/5
f 454/5/5 452/5/5 451/5/5
f 454/5/5 449/5/5 448/5/5
f 454/5/5 450/5/5 449/5/5
f 455/5/5 454/5/5 453/5/5
f 456/5/5 452/5/5 454/5/5
f 456/5/5 454/5/5 455/5/5
f 457/5/5 452/5/5 456/5/5
f 458/5/5 452/5/5 457/5/5
f 459/5/5 452/5/5 458/5/5
f 460/5/5 446/5/5 452/5/5
f 460/5/5 452/5/5 459/5/5
f 464/5/5 462/5/5 461/5/5
f 465/5/5 462/5/5 464/5/5
f 466/5/5 464/5/5 463/5/5
f 467/5/5 464/5/5 466/5/5
f 470/5/5 469/5/5 468/5/5
f 471/5/5 469/5/5 470/5/5
f 473/5/5 472/5/5 471/5/5
f 474/5/5 472/5/5 473/5/5
f 477/3/5 476/3/5 475/3/5
f 478/3/5 476/3/5 477/3/5
f 481/3/5 480/3/5 479/3/5
f 482/3/5 480/3/5 481/3/5
f 485/3/5 484/3/5 483/3/5
f 486/3/5 484/3/5 485/3/5
f 489/3/5 488/3/5 487/3/5
f 490/3/5 488/3/5 489/3/5
f 493/3/5 492/3/5 491/3/5
f 494/3/5 492/3/5 493/3/5
f 497/3/5 496/3/5 495/3/5
f 498/3/5 496/3/5 497/3/5
f 501/1/5 500/1/5 499/1/5
f 502/1/5 500/1/5 501/1/5
f 505/1/5 504/1/5 503/1/5
f 506/1/5 504/1/5 505/1/5
f 509/1/5 508/1/5 507/1/5
f 510/1/5 508/1/5 509/1/5
f 513/1/5 512/1/5 511/1/5
f 514/1/5 512/1/5 513/1/5
f 515/1/6 516/1/6 517/1/6
f 517/1/6 516/1/6 518/1/6
f 519/1/6 520/1/6 521/1/6
f 521/1/6 520/1/6 522/1/6
f 523/1/6 524/1/6 525/1/6
f 525/1/6 524/1/6 526/1/6
f 527/1/6 528/1/6 529/1/6
f 529/1/6 528/1/6 530/1/6
f 531/3/6 532/3/6 533/3/6
f 533/3/6 532/3/6 534/3/6
f 535/3/6 536/3/6 537/3/6
f 537/3/6 536/3/6 538/3/6
f 539/3/6 540/3/6 541/3/6
f 541/3/6 540/3/6 542/3/6
f 543/3/6 544/3/6 545/3/6
f 545/3/6 544/3/6 546/3/6
f 547/3/6 548/3/6 549/3/6
f 549/3/6 548/3/6 550/3/6
f 551/3/6 552/3/6 553/3/6
f 553/3/6 552/3/6 554/3/6
f 555/4/6 556/4/6 558/4/6
f 558/4/6 556/4/6 559/4/6
f 557/4/6 558/4/6 560/4/6
f 560/4/6 558/4/6 561/4/6
f 562/5/6 563/5/6 564/5/6
f 564/5/6 563/5/6 565/5/6
f 565/4/6 566/4/6 567/4/6
f 567/4/6 566/4/6 568/4/6
f 569/6/6 570/6/6 572/6/6
f 571/6/6 572/6/6 574/6/6
f 573/6/6 574/6/6 575/6/6
f 574/6/6 572/6/6 576/6/6
f 575/6/6 574/6/6 576/6/6
f 576/6/6 572/6/6 577/6/6
f 572/6/6 570/6/6 578/6/6
f 577/6/6 572/6/6 578/6/6
f 578/6/6 570/6/6 579/6/6
f 579/6/6 570/6/6 580/6/6
