# MagicaVoxel @ Ephtracy

# group
o 

# material
mtllib cupboard_corner_empty.mtl
usemtl palette

# normals
vn -1 0 0
vn 1 0 0
vn 0 0 1
vn 0 0 -1
vn 0 -1 0
vn 0 1 0

# texcoords
vt 0.0410156 0.5
vt 0.0449219 0.5
vt 0.384766 0.5

# verts
v -1.6 0 0.3
v -1.6 0 -1.5
v -1.6 0.1 -1.5
v -1.6 0.1 -1.6
v -1.6 2.4 0.3
v -1.6 2.4 -1.6
v -1.6 2.5 0.3
v -1.6 2.5 -1.6
v -1.5 0 0.4
v -1.5 0 0.3
v -1.5 0 -1.5
v -1.5 0 -1.6
v -1.5 0.1 -1.5
v -1.5 0.1 -1.6
v -1.5 0.1 -1.7
v -1.5 2.4 0.4
v -1.5 2.4 0.3
v -1.5 2.4 -1.6
v -1.5 2.4 -1.7
v -1.5 2.5 0.4
v -1.5 2.5 0.3
v -1.5 2.5 -1.6
v -1.5 2.5 -1.7
v -1.4 0 -1.6
v -1.4 0 -1.7
v -1.4 0.1 -1.6
v -1.4 0.1 -1.7
v -0.6 0 1.4
v -0.6 0 0.4
v -0.6 2.4 1.4
v -0.6 2.4 0.4
v -0.6 2.5 1.4
v -0.6 2.5 0.4
v -0.5 0 1.5
v -0.5 0 1.4
v -0.5 2.4 1.5
v -0.5 2.4 1.4
v -0.5 2.5 1.5
v -0.5 2.5 1.4
v 1.1 1.3 0
v 1.1 1.3 -0.1
v 1.1 2.2 0
v 1.1 2.2 -0.1
v 1.3 1.3 -0.1
v 1.3 1.3 -1.4
v 1.3 1.6 0
v 1.3 1.6 -0.1
v 1.3 2.2 0
v 1.3 2.2 -1.4
v 0.7 1.3 0
v 0.7 1.3 -1.4
v 0.7 2.2 0
v 0.7 2.2 -1.4
v 1.2 1.6 0
v 1.2 1.6 -0.1
v 1.2 2.2 0
v 1.2 2.2 -0.1
v 1.6 0 1.5
v 1.6 0 -1.7
v 1.6 2.4 1.5
v 1.6 2.4 -1.7
v 1.6 2.5 1.5
v 1.6 2.5 -1.7
v -0.5 0 1.5
v -0.5 2.4 1.5
v -0.5 2.5 1.5
v 1.6 0 1.5
v 1.6 2.4 1.5
v 1.6 2.5 1.5
v -0.6 0 1.4
v -0.6 2.4 1.4
v -0.6 2.5 1.4
v -0.5 0 1.4
v -0.5 2.4 1.4
v -0.5 2.5 1.4
v -1.5 0 0.4
v -1.5 2.4 0.4
v -1.5 2.5 0.4
v -0.6 0 0.4
v -0.6 2.4 0.4
v -0.6 2.5 0.4
v -1.6 0 0.3
v -1.6 2.4 0.3
v -1.6 2.5 0.3
v -1.5 0 0.3
v -1.5 2.4 0.3
v -1.5 2.5 0.3
v 0.7 1.3 -1.4
v 0.7 2.2 -1.4
v 1.3 1.3 -1.4
v 1.3 2.2 -1.4
v 0.7 1.3 0
v 0.7 2.2 0
v 1.1 1.3 0
v 1.1 2.2 0
v 1.2 1.6 0
v 1.2 2.2 0
v 1.3 1.6 0
v 1.3 2.2 0
v 1.1 1.3 -0.1
v 1.1 2.2 -0.1
v 1.2 1.6 -0.1
v 1.2 2.2 -0.1
v 1.3 1.3 -0.1
v 1.3 1.6 -0.1
v -1.6 0 -1.5
v -1.6 0.1 -1.5
v -1.5 0 -1.5
v -1.5 0.1 -1.5
v -1.6 0.1 -1.6
v -1.6 2.4 -1.6
v -1.6 2.5 -1.6
v -1.5 0 -1.6
v -1.5 0.1 -1.6
v -1.5 2.4 -1.6
v -1.5 2.5 -1.6
v -1.4 0 -1.6
v -1.4 0.1 -1.6
v -1.5 0.1 -1.7
v -1.5 2.4 -1.7
v -1.5 2.5 -1.7
v -1.4 0 -1.7
v -1.4 0.1 -1.7
v 1.6 0 -1.7
v 1.6 2.4 -1.7
v 1.6 2.5 -1.7
v -0.5 0 1.5
v 1.6 0 1.5
v -0.6 0 1.4
v -0.5 0 1.4
v -1.5 0 0.4
v -0.6 0 0.4
v -1.6 0 0.3
v -1.5 0 0.3
v -1.6 0 -1.5
v -1.5 0 -1.5
v -1.5 0 -1.6
v -1.4 0 -1.6
v -1.4 0 -1.7
v 1.6 0 -1.7
v -1.6 0.1 -1.5
v -1.5 0.1 -1.5
v -1.6 0.1 -1.6
v -1.5 0.1 -1.6
v -1.4 0.1 -1.6
v -1.5 0.1 -1.7
v -1.4 0.1 -1.7
v 0.7 2.2 0
v 1.1 2.2 0
v 1.2 2.2 0
v 1.3 2.2 0
v 1.1 2.2 -0.1
v 1.2 2.2 -0.1
v 0.7 2.2 -1.4
v 1.3 2.2 -1.4
v 0.7 1.3 0
v 1.1 1.3 0
v 1.1 1.3 -0.1
v 1.3 1.3 -0.1
v 0.7 1.3 -1.4
v 1.3 1.3 -1.4
v 1.2 1.6 0
v 1.3 1.6 0
v 1.2 1.6 -0.1
v 1.3 1.6 -0.1
v -0.5 2.5 1.5
v 1.6 2.5 1.5
v -0.6 2.5 1.4
v -0.5 2.5 1.4
v -1.5 2.5 0.4
v -0.6 2.5 0.4
v -1.6 2.5 0.3
v -1.5 2.5 0.3
v -1.6 2.5 -1.6
v -1.5 2.5 -1.6
v -1.5 2.5 -1.7
v 1.6 2.5 -1.7

# faces
f 3/2/1 2/2/1 1/2/1
f 5/2/1 3/2/1 1/2/1
f 5/2/1 4/2/1 3/2/1
f 6/2/1 4/2/1 5/2/1
f 7/3/1 6/3/1 5/3/1
f 8/3/1 6/3/1 7/3/1
f 13/2/1 12/2/1 11/2/1
f 14/2/1 12/2/1 13/2/1
f 16/2/1 10/2/1 9/2/1
f 17/2/1 10/2/1 16/2/1
f 18/2/1 15/2/1 14/2/1
f 19/2/1 15/2/1 18/2/1
f 20/3/1 17/3/1 16/3/1
f 21/3/1 17/3/1 20/3/1
f 22/3/1 19/3/1 18/3/1
f 23/3/1 19/3/1 22/3/1
f 26/2/1 25/2/1 24/2/1
f 27/2/1 25/2/1 26/2/1
f 30/2/1 29/2/1 28/2/1
f 31/2/1 29/2/1 30/2/1
f 32/3/1 31/3/1 30/3/1
f 33/3/1 31/3/1 32/3/1
f 36/2/1 35/2/1 34/2/1
f 37/2/1 35/2/1 36/2/1
f 38/3/1 37/3/1 36/3/1
f 39/3/1 37/3/1 38/3/1
f 42/2/1 41/2/1 40/2/1
f 43/2/1 41/2/1 42/2/1
f 47/2/1 45/2/1 44/2/1
f 48/2/1 47/2/1 46/2/1
f 49/2/1 45/2/1 47/2/1
f 49/2/1 47/2/1 48/2/1
f 50/2/2 51/2/2 52/2/2
f 52/2/2 51/2/2 53/2/2
f 54/2/2 55/2/2 56/2/2
f 56/2/2 55/2/2 57/2/2
f 58/2/2 59/2/2 60/2/2
f 60/2/2 59/2/2 61/2/2
f 60/3/2 61/3/2 62/3/2
f 62/3/2 61/3/2 63/3/2
f 67/2/3 65/2/3 64/2/3
f 68/3/3 66/3/3 65/3/3
f 68/2/3 65/2/3 67/2/3
f 69/3/3 66/3/3 68/3/3
f 73/2/3 71/2/3 70/2/3
f 74/3/3 72/3/3 71/3/3
f 74/2/3 71/2/3 73/2/3
f 75/3/3 72/3/3 74/3/3
f 79/2/3 77/2/3 76/2/3
f 80/3/3 78/3/3 77/3/3
f 80/2/3 77/2/3 79/2/3
f 81/3/3 78/3/3 80/3/3
f 85/2/3 83/2/3 82/2/3
f 86/3/3 84/3/3 83/3/3
f 86/2/3 83/2/3 85/2/3
f 87/3/3 84/3/3 86/3/3
f 90/2/3 89/2/3 88/2/3
f 91/2/3 89/2/3 90/2/3
f 92/2/4 93/2/4 94/2/4
f 94/2/4 93/2/4 95/2/4
f 96/2/4 97/2/4 98/2/4
f 98/2/4 97/2/4 99/2/4
f 100/2/4 101/2/4 102/2/4
f 102/2/4 101/2/4 103/2/4
f 100/2/4 102/2/4 104/2/4
f 104/2/4 102/2/4 105/2/4
f 106/2/4 107/2/4 108/2/4
f 108/2/4 107/2/4 109/2/4
f 110/2/4 111/2/4 114/2/4
f 111/3/4 112/3/4 115/3/4
f 114/2/4 111/2/4 115/2/4
f 115/3/4 112/3/4 116/3/4
f 113/2/4 114/2/4 117/2/4
f 117/2/4 114/2/4 118/2/4
f 119/2/4 120/2/4 123/2/4
f 122/2/4 123/2/4 124/2/4
f 120/3/4 121/3/4 125/3/4
f 124/2/4 123/2/4 125/2/4
f 123/2/4 120/2/4 125/2/4
f 125/3/4 121/3/4 126/3/4
f 130/2/5 128/2/5 127/2/5
f 132/2/5 130/2/5 129/2/5
f 134/2/5 132/2/5 131/2/5
f 135/2/5 134/2/5 133/2/5
f 136/2/5 132/2/5 134/2/5
f 136/2/5 134/2/5 135/2/5
f 137/2/5 132/2/5 136/2/5
f 138/2/5 132/2/5 137/2/5
f 139/2/5 132/2/5 138/2/5
f 140/2/5 128/2/5 130/2/5
f 140/2/5 132/2/5 139/2/5
f 140/2/5 130/2/5 132/2/5
f 143/2/5 142/2/5 141/2/5
f 144/2/5 142/2/5 143/2/5
f 146/2/5 145/2/5 144/2/5
f 147/2/5 145/2/5 146/2/5
f 152/2/5 149/2/5 148/2/5
f 153/2/5 151/2/5 150/2/5
f 154/2/5 152/2/5 148/2/5
f 154/2/5 153/2/5 152/2/5
f 155/2/5 151/2/5 153/2/5
f 155/2/5 153/2/5 154/2/5
f 156/2/6 157/2/6 158/2/6
f 156/2/6 158/2/6 160/2/6
f 158/2/6 159/2/6 160/2/6
f 160/2/6 159/2/6 161/2/6
f 162/2/6 163/2/6 164/2/6
f 164/2/6 163/2/6 165/2/6
f 166/3/6 167/3/6 169/3/6
f 168/3/6 169/3/6 171/3/6
f 170/3/6 171/3/6 173/3/6
f 172/3/6 173/3/6 174/3/6
f 173/3/6 171/3/6 175/3/6
f 174/3/6 173/3/6 175/3/6
f 175/3/6 171/3/6 176/3/6
f 169/3/6 167/3/6 177/3/6
f 176/3/6 171/3/6 177/3/6
f 171/3/6 169/3/6 177/3/6
